<?xml version="1.0" encoding="iso-8859-1"?>
<!-- Generator: Adobe Illustrator 19.0.0, SVG Export Plug-In . SVG Version: 6.00 Build 0)  -->
<svg xmlns="http://www.w3.org/2000/svg" xmlns:xlink="http://www.w3.org/1999/xlink" version="1.1" id="Layer_1" x="0px" y="0px" viewBox="0 0 500.148 500.148" style="enable-background:new 0 0 500.148 500.148;" xml:space="preserve" width="512" height="512">
<g>
	
		<ellipse transform="matrix(0.7071 -0.7071 0.7071 0.7071 -13.6701 169.9691)" style="fill:#80C469;" cx="198.336" cy="101.486" rx="47.971" ry="78.497"/>
	
		<ellipse transform="matrix(0.7071 -0.7071 0.7071 0.7071 16.6375 243.1382)" style="fill:#6AC186;" cx="301.812" cy="101.486" rx="78.497" ry="47.971"/>
	<path style="fill:#A8D384;" d="M302.146,85.198c0,47.063-23.313,85.209-52.072,85.209h-0.139   c-28.695-0.128-51.933-38.221-51.933-85.209c0-46.977,23.238-85.07,51.933-85.198h0.139C278.833,0,302.146,38.146,302.146,85.198z"/>
	<path style="fill:#80C469;" d="M302.146,85.198c0,47.063-23.313,85.209-52.072,85.209h-0.139V0h0.139   C278.833,0,302.146,38.146,302.146,85.198z"/>
	<path style="fill:#F8A73D;" d="M353.342,257.304c0,10.786-0.598,22.255-1.741,34.12c-1.004,10.444-2.435,21.188-4.25,32.038   c-14.257,85.241-52.424,176.687-97.277,176.687h-0.139c-30.211-0.128-57.379-41.723-76.239-94.916   c-3.652-10.316-6.995-21.07-9.985-32.038c-10.391-38.061-16.553-78.748-16.884-112.964c-0.021-0.983-0.021-1.954-0.021-2.926   c0-10.818,0.598-20.483,1.751-29.111c8.917-67.055,50.908-71.828,101.377-71.839h0.139   C307.111,156.354,353.342,162.366,353.342,257.304z"/>
	<path style="fill:#F38531;" d="M353.342,257.304c0,10.786-0.598,22.255-1.741,34.12c-1.004,10.444-2.435,21.188-4.25,32.038   c-14.257,85.241-52.424,176.687-97.277,176.687h-0.139V156.354h0.139C307.111,156.354,353.342,162.366,353.342,257.304z"/>
	<path style="fill:#FFE6B9;" d="M209.536,244.211c0,8.842-7.176,16.019-16.019,16.019h-46.689c-0.021-0.983-0.021-1.954-0.021-2.926   c0-10.818,0.598-20.483,1.751-29.111h44.959C202.359,228.192,209.536,235.369,209.536,244.211z"/>
	<path style="fill:#FFCD76;" d="M351.601,291.424c-1.004,10.444-2.435,21.188-4.25,32.038h-37.196   c-8.853,0-16.019-7.166-16.019-16.019c0-8.842,7.166-16.019,16.019-16.019H351.601z"/>
	<path style="fill:#FFE6B9;" d="M224.423,389.213c0,8.842-7.176,16.019-16.019,16.019h-34.707   c-3.652-10.316-6.995-21.07-9.985-32.038h44.692C217.246,373.194,224.423,380.371,224.423,389.213z"/>
</g>















</svg>
