<svg id="Capa_1" enable-background="new 0 0 512 512" height="512" viewBox="0 0 512 512" width="512" xmlns="http://www.w3.org/2000/svg"><g><path d="m278.12 22.281c-16.87-5.858-89.623 73.156-75.56 134.952l33.051 1.712c46.599-20.73 53.701-132.778 42.509-136.664z" fill="#ebe1dc"/><path d="m504.5 237.538c.074-14.549-15.069-21.747-28.408-23.734-7.042-1.049-14.195-1.292-21.293-.767-3.36.249-5.348-3.65-3.158-6.21 7.328-8.565 13.127-16.279 15.547-20.47 8.155-14.124 3.315-32.185-10.809-40.34s-32.185-3.315-40.34 10.809c-2.42 4.191-6.201 13.07-9.954 23.699-1.122 3.177-5.492 3.405-6.957.37-3.094-6.41-6.882-12.483-11.311-18.057-8.39-10.558-22.195-20.073-34.758-12.735-3.798 2.218-6.686 5.722-8.47 9.742-4.33 9.754-2.692 20.217-.243 30.109 5.283 21.336 14.385 41.72 26.745 59.896l38.01 21.945c21.921 1.616 44.126-.693 65.245-6.786 9.791-2.825 19.671-6.638 25.953-15.265 2.589-3.555 4.179-7.809 4.201-12.206z" fill="#94d4a2"/><path d="m490.541 218.146c.003.17.015.336.014.508-.022 4.398-1.612 8.651-4.201 12.207-6.282 8.626-16.163 12.44-25.953 15.265-21.119 6.093-43.324 8.402-65.245 6.786l-34.137-19.709c3.067 5.719 6.424 11.282 10.073 16.648l38.01 21.945c21.921 1.616 44.125-.693 65.245-6.786 9.791-2.825 19.671-6.638 25.953-15.265 2.589-3.555 4.179-7.808 4.201-12.206.046-9.259-6.071-15.536-13.96-19.393z" fill="#6dc17d"/><path d="m426.246 335.715c5.357-4.883 10.07-10.654 13.888-17.267 19.923-34.507 8.1-78.632-26.408-98.555-34.507-19.923-78.632-8.1-98.555 26.408-3.818 6.613-6.46 13.581-8.01 20.663-32.713 138.888-32.734 138.999-40.962 173.91-1.779 7.548 1.477 15.678 8.538 19.755s15.728 2.829 21.375-2.485c26.12-24.582 26.209-24.654 130.134-122.429z" fill="#e27c48"/><path d="m417.216 222.051c10.121 20.679 9.168 48.11-4.732 72.185-3.95 6.842-8.663 12.908-13.906 18.134-101.919 104.41-102.003 104.489-127.619 130.738-1.544 1.582-3.287 2.852-5.124 3.803.589 5.535 3.713 10.722 8.903 13.719 7.061 4.077 15.728 2.83 21.375-2.485 26.12-24.582 26.208-24.654 130.134-122.429 5.357-4.883 10.07-10.654 13.888-17.267 19.233-33.316 8.872-75.588-22.919-96.398z" fill="#dd552d"/><ellipse cx="36.324" cy="401.12" fill="#ebe1dc" rx="28.824" ry="28.824" transform="matrix(.995 -.099 .099 .995 -39.348 5.531)"/><path d="m374.354 65.407c-13.309-15.729-122.291 27.289-146.791 74.22-42.009-1.598-78.408 29.934-82.333 72.3-4.06 43.836 28.184 82.664 72.02 86.725 45.925 4.254 98.759 1.72 112.969-37.77 8.772-24.378-4.273-70.487-40.098-98.366 60.471-21.829 94.2-85.331 84.233-97.109z" fill="#f7f3f1"/><path d="m319.72 233.289c-8.631 41.072-60.611 50.865-106.684 52.982-17.088.785-33.154-3.889-46.545-12.455 12.857 13.71 30.573 22.966 50.761 24.836 45.925 4.254 98.759 1.72 112.969-37.77 7.87-21.871-1.836-61.224-29.78-89.22 15.876 21.131 22.722 45.243 19.279 61.627z" fill="#ebe1dc"/><path d="m311.118 346.736c-63.486-9.87-84.303-61.416-84.303-61.416l-61.87-26.321c-173.124 62.972-119.931 231.028-31.715 231.028h169.103c4.852 0 8.785-3.933 8.785-8.785v-11.603c0-23.388-18.96-42.348-42.348-42.348h-27.965c2.227-6.076 3.443-12.639 3.443-19.487 0-11.837-3.638-22.821-9.848-31.907 17.198 4.885 37.97 10.143 54.705 12.444 42.44 5.834 50.63-37.156 22.013-41.605z" fill="#f7f3f1"/><path d="m322.845 352.222c-6.213 5.725-14.168 9.741-22.387 11.944-12.836 3.439-26.367 3.009-39.62 2.04-20.29-1.482-40.492-4.166-60.465-8.033 6.594 18.785 24.418 33.756 43.273 41.396-1.268-8.687-4.503-16.735-9.246-23.673 17.198 4.885 37.971 10.143 54.705 12.444 34.945 4.804 46.663-23.489 33.74-36.118z" fill="#ebe1dc"/><path d="m366.434 98.368c-13.357 22.927-40.016 51.035-76.312 64.146-2.246-1.751-4.58-3.429-7.006-5.025-4.116-2.709-5.553-8.053-3.261-12.414 15.089-28.709 43.129-48.973 86.579-46.707z" fill="#df646e"/><path d="m268.77 427.29h-27.965c2.561-6.986 3.785-14.617 3.361-22.584-1.544-28.992-25.329-52.38-54.341-53.48-7.04-.267-13.804.757-20.082 2.846 24.839 9.886 44.372 43.25 44.372 69.58 0 2.739-.195 5.433-.571 8.068-.863 6.05 3.973 11.419 10.084 11.419h15.008c23.388 0 42.348 18.96 42.348 42.348v4.539h21.348c4.852 0 8.785-3.933 8.785-8.785v-11.603c.001-23.388-18.959-42.348-42.347-42.348z" fill="#ebe1dc"/><g><path d="m499.667 214.85c-5.872-4.172-13.853-7.178-22.471-8.464-4.77-.711-9.621-1.082-14.501-1.111 4.98-6.159 8.921-11.579 10.991-15.164 10.202-17.688 4.12-40.379-13.556-50.582-8.569-4.949-18.552-6.264-28.104-3.703-9.556 2.561-17.54 8.691-22.48 17.258-2.073 3.589-4.799 9.713-7.639 17.096-2.472-4.22-5.22-8.235-8.215-12.001-13.35-16.802-30.785-22.516-44.416-14.55-5.037 2.942-9.029 7.5-11.542 13.174-5.272 11.885-3.295 24.339-.666 34.95 1.58 6.395 3.512 12.761 5.76 19.006-2.52 1.221-4.985 2.578-7.384 4.074-.474-1.467-.97-2.936-1.511-4.408-6.297-17.119-16.672-32.951-29.749-45.605.056-.026.109-.054.165-.08 18.939-8.809 33.799-20.733 44.883-32.024.196-.198 3.521-3.663 4.327-4.543 7.347-8.015 13.749-16.612 18.745-24.995.216-.361.422-.709.608-1.029.005-.009.008-.018.013-.027 4.319-7.406 7.523-14.619 9.249-21.079 2.425-9.077 1.72-15.966-2.097-20.477-4.255-5.027-11.955-6.846-23.541-5.559-17.947 1.992-44.837 11.55-69.512 24.604 1.968-11.465 3.11-23.065 3.228-33.386.218-19.058-2.766-28.627-9.673-31.026-6.864-2.387-15.793 1.059-27.3 10.528-9.605 7.903-19.873 19.212-28.912 31.841-2.411 3.368-1.635 8.054 1.733 10.464 3.367 2.413 8.054 1.636 10.464-1.733 15.489-21.641 31.09-33.964 37.569-36.382 1.993 8.27 1.795 33.028-4.414 59.681-16.101 10.125-35.718 24.986-46.489 42.482-4.982.072-9.868.588-14.632 1.473 1.06-11.955 4.733-24.794 10.993-38.307 1.74-3.759.105-8.217-3.653-9.958-3.758-1.74-8.216-.106-9.958 3.653-7.955 17.175-12.196 33.603-12.659 48.929-30.057 11.566-52.412 39.366-55.562 73.368-1.52 16.406 1.519 32.488 8.813 47.004-62.478 27.108-91.82 68.236-100.379 107.934-3.188-.898-6.503-1.372-9.873-1.372-20.027.001-36.32 16.294-36.32 36.32 0 20.027 16.293 36.32 36.32 36.32 5.151 0 10.187-1.096 14.801-3.155 5.638 14.879 14.18 28.267 24.957 38.829 16.064 15.742 36.361 24.412 57.151 24.412h169.104c8.979 0 16.284-7.306 16.284-16.285v-11.604c0-6.678-1.329-13.049-3.722-18.875l101.074-95.08c3.018-2.838 3.162-7.585.324-10.602-2.838-3.019-7.584-3.162-10.602-.324l-98.738 92.883c-7.132-8.497-17.036-14.59-28.311-16.864 1.676-7.111 3.461-14.693 6.005-25.512 1.169.181 2.319.352 3.435.505 27.733 3.818 44.682-10.824 47.089-27.256 1.823-12.452-5.458-26.478-22.902-29.189-4.994-.777-9.497-1.804-13.742-2.999 1.414-6.012 9.512-40.404 9.512-40.404 14.295-7.392 24.118-18.274 29.237-32.502 3.325-9.239 3.931-20.719 1.943-33.037 20.528-15.163 48.431-16.888 70.758-3.999 30.869 17.832 41.482 57.45 23.649 88.328-1.245 2.167-2.641 4.291-4.149 6.315-2.476 3.321-1.791 8.021 1.53 10.496 1.346 1.003 2.918 1.487 4.477 1.486 2.287 0 4.547-1.043 6.02-3.018 1.862-2.499 3.588-5.126 5.121-7.792 8.259-14.301 11.56-30.127 10.444-45.478 6.542-1.177 13.029-2.684 19.364-4.508 10.513-3.039 22.289-7.562 29.926-18.056 3.664-5.021 5.614-10.756 5.642-16.583.043-9.102-4.222-16.963-12.334-22.726zm-207.874-61.01c-.161.065-.319.135-.48.199-1.341-.968-2.702-1.907-4.074-2.81-.908-.598-1.228-1.742-.745-2.661 9.797-18.64 29.021-40.083 65.951-42.62-15.082 20.397-36.765 38.232-60.652 47.892zm-255.473 268.604c-11.756 0-21.32-9.564-21.32-21.32s9.564-21.319 21.32-21.319c2.626 0 5.194.479 7.597 1.396-1.032 11.593-.379 22.889 1.648 33.482.326 1.703.7 3.39 1.099 5.07-3.133 1.743-6.684 2.691-10.344 2.691zm227.144-2.649h-12.835c2.112-11.155 1.145-22.39-2.167-32.3 7.704 1.991 14.851 3.677 21.417 5.053-2.745 11.664-4.602 19.554-6.415 27.247zm20.851-88.552c-12.165-5.368-23.312-13.024-33.242-23.57-.014-.015-.028-.031-.042-.046 15.429-.24 28.66-1.937 40.052-5.127-.001.001-5.464 23.201-6.768 28.743zm38.848-72.896c-4.045 11.242-12.058 19.673-24.162 25.37-.391.142-.766.318-1.127.521-14.107 6.31-33.57 9.047-58.616 8.293-3.774-5.91-5.468-9.965-5.497-10.034-1.558-3.827-5.92-5.676-9.755-4.126-3.841 1.551-5.697 5.922-4.146 9.763.876 2.17 21.343 51.186 81.856 64.469 1.552.357 5.176 1.072 8.248 1.55 8.76 1.361 11.098 7.191 10.365 12.194-1.765 12.047-16.526 16.446-30.203 14.569-12.956-1.782-30.624-5.765-51.202-11.533-11.708-15.589-30.344-25.693-51.296-25.693-11.979 0-23.665 3.327-33.797 9.622-3.519 2.186-4.599 6.81-2.413 10.328 2.188 3.519 6.811 4.598 10.329 2.412 7.753-4.816 16.702-7.362 25.881-7.362 34.143 0 57.83 34.098 46.134 66.026-.843 2.3-.51 4.867.894 6.875 1.403 2.009 3.698 3.205 6.148 3.205h27.965c19.215 0 34.848 15.633 34.848 34.848v11.604c0 .709-.576 1.285-1.284 1.285h-169.104c-45.441 0-80.03-49.896-74.388-102.709.546-1.287.706-2.667.513-3.995 7.605-51.673 53.833-88.323 100.687-106.936 2.076-.824 3.676-2.531 4.365-4.655s.396-4.445-.8-6.331c-8.621-13.593-12.393-29.251-10.908-45.283 3.452-37.258 34.72-65.55 71.801-65.55.921 0 1.852.018 2.779.053 2.918.116 5.594-1.457 6.934-4.023 7.269-13.922 24.26-29.366 47.846-43.486 20.677-12.379 44.575-22.627 63.928-27.414 14.257-3.525 20.751-2.7 22.52-1.927.29 1.51.085 6.322-3.767 15.035-.781 1.767-1.669 3.581-2.638 5.423-39.785-.626-71.239 17.285-88.884 50.857-4.089 7.78-1.605 17.312 5.776 22.169 2.224 1.464 4.418 3.038 6.52 4.677 20.555 15.997 33.471 39.05 38.048 59.463.053.66.194 1.313.423 1.946 2.168 10.844 1.934 20.843-.821 28.5zm171.072-13.016c-4.963 6.82-13.491 10.028-21.961 12.477-5.784 1.665-11.71 3.038-17.689 4.12-5.253-19.76-18.042-37.516-37.105-48.528-18.692-10.792-40.557-13.26-60.588-7.88-2.048-5.708-3.818-11.523-5.261-17.369-2.121-8.558-3.61-17.542-.183-25.27 1.213-2.739 3.129-4.977 5.396-6.301 3.558-2.08 7.495-2.081 12.035 0 4.447 2.038 9.088 5.92 13.071 10.934 4.025 5.061 7.533 10.661 10.419 16.628 1.981 4.124 6.229 6.634 10.764 6.39 4.558-.242 8.492-3.185 10.029-7.51 4.163-11.791 7.65-19.455 9.375-22.439 2.939-5.098 7.688-8.744 13.371-10.267 5.685-1.524 11.621-.741 16.723 2.204 10.517 6.071 14.133 19.572 8.063 30.094-1.719 2.977-6.613 9.829-14.754 19.347-2.97 3.472-3.558 8.345-1.497 12.413 2.063 4.077 6.35 6.479 10.915 6.151 6.608-.495 13.209-.258 19.625.698 6.329.944 12.01 3.024 15.997 5.856 4.07 2.892 6.04 6.304 6.02 10.431-.012 2.617-.992 5.391-2.765 7.821z"/><path d="m266.616 192.449c-3.837-1.569-8.213.266-9.782 4.099l-3.007 7.344c-1.569 3.833.266 8.213 4.099 9.782.931.381 1.893.562 2.839.562 2.954 0 5.755-1.757 6.943-4.66l3.007-7.344c1.569-3.834-.266-8.214-4.099-9.783z"/></g></g></svg>