<svg id="Capa_1" enable-background="new 0 0 512 512" height="512" viewBox="0 0 512 512" width="512" xmlns="http://www.w3.org/2000/svg"><g><g><path d="m434.169 60.514c-2.921-17.466-12.491-33.287-27.954-43.226-30.466-19.579-72.257-8.863-93.331 23.936-21.085 32.799-44.762 123.957-14.296 143.536 8.833 5.672 21.244 4.715 34.942-.329z" fill="#cbe4ea"/><path d="m362.921 410.067c0 59.051-47.871 76.075-106.922 76.075s-106.922-17.024-106.922-76.075 47.871-106.922 106.922-106.922 106.922 47.87 106.922 106.922z" fill="#aed1d9"/><path d="m77.831 60.514c2.921-17.466 12.491-33.287 27.954-43.226 30.466-19.579 72.257-8.863 93.331 23.936 21.085 32.799 44.762 123.957 14.296 143.536-8.833 5.672-21.244 4.715-34.942-.329z" fill="#cbe4ea"/><path d="m133.846 129.485 44.623 54.945c13.698 5.044 26.109 6.001 34.942.329 21.692-13.941 15.933-64.165 3.208-103.777-32.234 7.816-60.842 25.002-82.773 48.503z" fill="#aed1d9"/><path d="m295.38 80.982c-12.725 39.613-18.483 89.837 3.208 103.777 8.833 5.673 21.244 4.715 34.942-.329l44.624-54.945c-21.931-23.501-50.539-40.687-82.774-48.503z" fill="#aed1d9"/><path d="m182.537 156.646c0 9.66-1.416 18.991-4.067 27.784-33.526-12.302-74.719-49.008-89.683-72.296-10.388-16.16-13.807-34.663-10.956-51.62 2.712-.229 5.453-.349 8.225-.349 53.285 0 96.481 43.196 96.481 96.481z" fill="#ffa0ab"/><path d="m329.463 156.646c0 9.66 1.416 18.991 4.067 27.784 33.526-12.302 74.719-49.008 89.683-72.296 10.388-16.16 13.807-34.663 10.956-51.62-2.712-.229-5.453-.349-8.225-.349-53.285 0-96.481 43.196-96.481 96.481z" fill="#ffa0ab"/><path d="m119.884 146.55c17.827 15.888 39.452 30.86 58.586 37.881 2.652-8.793 4.067-18.124 4.067-27.784 0-20.012-6.093-38.6-16.525-54.012-18.032 11.568-33.706 26.506-46.128 43.915z" fill="#ff919f"/><path d="m345.988 102.634c-10.432 15.412-16.525 34-16.525 54.012 0 9.66 1.416 18.991 4.067 27.784 19.134-7.021 40.759-21.993 58.586-37.881-12.422-17.408-28.096-32.346-46.128-43.915z" fill="#ff919f"/><path d="m393.114 243.396c0 75.726-61.388 117.175-137.114 117.175s-137.114-41.45-137.114-117.175 61.388-137.113 137.114-137.113 137.114 61.388 137.114 137.113z" fill="#cbe4ea"/><path d="m256 360.572c-75.726 0-137.114-41.449-137.114-117.175 0-46.245 22.896-87.14 57.968-111.975-7.451 16.708-11.599 35.214-11.599 54.691 0 62.372 42.48 114.822 100.086 129.997z" fill="#aed1d9"/><ellipse cx="180.518" cy="230.066" fill="#ffa0ab" rx="27.851" ry="22.179"/><ellipse cx="331.482" cy="230.066" fill="#ffa0ab" rx="27.851" ry="22.179"/><path d="m212.495 427.308c0-57.874 46.916-104.791 104.791-104.791.034 0 .067.001.101.001-17.374-12.205-38.543-19.375-61.388-19.375-59.051 0-106.922 47.871-106.922 106.922 0 49.975 34.288 69.847 80.62 74.776-10.871-16.514-17.202-36.282-17.202-57.533z" fill="#9fc8d1"/><circle cx="213.878" cy="301.636" fill="#a9c764" r="27.623"/><circle cx="298.122" cy="301.636" fill="#a9c764" r="27.623"/><circle cx="256" cy="285.714" fill="#bed164" r="27.623"/><path d="m303.63 343.313c0 26.306-21.325 72.553-47.63 72.553s-47.63-46.248-47.63-72.553c0-26.306 21.325-47.63 47.63-47.63s47.63 21.325 47.63 47.63z" fill="#ffbd6c"/><path d="m228.914 324.563c0-8.189 1.592-16.002 4.456-23.169-14.887 8.054-25 23.805-25 41.919 0 26.305 21.325 72.553 47.63 72.553 13.859 0 26.333-12.838 35.037-28.832-34.342-.193-62.123-28.084-62.123-62.471z" fill="#ffa93e"/><g fill="#cbe4ea"><path d="m187.431 313.669h-39.972c-17.822 0-32.269 14.447-32.269 32.269 0 17.822 14.447 32.269 32.269 32.269h39.972c17.822 0 32.269-14.447 32.269-32.269 0-17.821-14.448-32.269-32.269-32.269z"/><path d="m324.569 313.669h39.972c17.822 0 32.269 14.447 32.269 32.269 0 17.822-14.447 32.269-32.269 32.269h-39.972c-17.822 0-32.269-14.447-32.269-32.269 0-17.821 14.448-32.269 32.269-32.269z"/><path d="m236.987 469.333-2.709-10.365c-4.157-15.908-18.528-27.006-34.971-27.006-16.443 0-30.813 11.098-34.971 27.006l-2.709 10.365c-4.649 17.787 8.773 35.167 27.158 35.167h21.044c18.385 0 31.806-17.38 27.158-35.167z"/><path d="m275.01 469.333 2.709-10.365c4.157-15.908 18.528-27.006 34.971-27.006 16.443 0 30.813 11.098 34.971 27.006l2.709 10.365c4.649 17.787-8.773 35.167-27.158 35.167h-21.044c-18.385 0-31.806-17.38-27.158-35.167z"/></g></g><g><path d="m275.506 210.359c0 3.31-2.693 6.003-6.003 6.003s-6.003-2.693-6.003-6.003c0-4.142-3.358-7.5-7.5-7.5s-7.5 3.358-7.5 7.5c0 3.31-2.693 6.003-6.003 6.003s-6.003-2.693-6.003-6.003c0-4.142-3.358-7.5-7.5-7.5s-7.5 3.358-7.5 7.5c0 11.581 9.422 21.004 21.004 21.004 5.14 0 9.849-1.862 13.503-4.94 3.654 3.077 8.363 4.94 13.503 4.94 11.581 0 21.003-9.422 21.003-21.004 0-4.142-3.358-7.5-7.5-7.5s-7.501 3.357-7.501 7.5z"/><path d="m178.171 199.322c0 4.142 3.358 7.5 7.5 7.5s7.5-3.358 7.5-7.5c0-2.955 2.403-5.358 5.358-5.358s5.358 2.403 5.358 5.358c0 4.142 3.358 7.5 7.5 7.5s7.5-3.358 7.5-7.5c0-11.225-9.133-20.359-20.359-20.359-11.224 0-20.357 9.133-20.357 20.359z"/><path d="m293.111 199.322c0 4.142 3.358 7.5 7.5 7.5s7.5-3.358 7.5-7.5c0-2.955 2.403-5.358 5.358-5.358s5.358 2.403 5.358 5.358c0 4.142 3.358 7.5 7.5 7.5s7.5-3.358 7.5-7.5c0-11.225-9.133-20.359-20.359-20.359-11.224 0-20.357 9.133-20.357 20.359z"/><path d="m410.276 10.96c-33.481-21.516-80.055-10.608-103.7 26.19-9.536 14.833-18.865 39.331-24.511 63.976-8.458-1.546-17.169-2.358-26.066-2.358-8.898 0-17.608.813-26.066 2.358-5.645-24.645-14.975-49.143-24.51-63.975-23.677-36.848-70.26-47.681-103.701-26.191-34.316 22.06-42.34 69.297-19.252 105.214 9.906 15.417 29.789 35.281 50.733 50.909-13.822 22.163-21.823 48.315-21.823 76.304 0 25.294 6.379 47.659 18.955 66.655-13.384 6.41-22.651 20.087-22.651 35.891 0 20.84 16.116 37.975 36.537 39.628-1.749 8.015-2.65 16.219-2.65 24.503 0 19.652 5.043 36.116 14.976 49.029l-2.18 8.343c-5.89 22.538 11.1 44.565 34.415 44.565h21.045c13.426 0 25.184-7.344 31.34-18.741 4.78.252 9.744.383 14.831.383s10.051-.131 14.831-.383c6.157 11.396 17.915 18.74 31.341 18.74h21.045c23.295 0 40.31-22.008 34.415-44.565l-2.181-8.343c9.932-12.912 14.975-29.377 14.975-49.029 0-8.284-.9-16.488-2.65-24.503 20.423-1.651 36.54-18.787 36.54-39.628 0-15.81-9.275-29.492-22.667-35.898 4.217-6.395 7.779-13.214 10.604-20.392 1.516-3.855-.379-8.209-4.234-9.725-3.853-1.517-8.208.379-9.725 4.234-3.103 7.887-7.211 15.284-12.236 22.041-.504-.019-1.008-.029-1.511-.029h-31.585c.218-1.715.288-3.428.288-4.533 0-19.367-15.756-35.124-35.124-35.124-3.803 0-7.813.648-11.526 1.936-6.015-10.66-17.601-17.859-30.598-17.859-12.603 0-24.397 6.866-30.598 17.859-3.686-1.279-7.685-1.936-11.526-1.936-19.367 0-35.124 15.756-35.124 35.124 0 1.397.099 3.046.288 4.533h-31.585c-.504 0-1.009.01-1.514.029-12.982-17.421-19.56-38.529-19.56-62.804 0-71.472 58.147-129.618 129.618-129.618 77.816 0 137.14 68.083 128.872 143.2-.453 4.117 2.518 7.823 6.635 8.275 4.124.453 7.823-2.518 8.276-6.635 3.36-30.539-3.259-63.101-20.987-91.527 20.944-15.628 40.826-35.491 50.732-50.908 23.138-35.993 14.99-83.203-19.251-105.215zm-200.449 486.039h-21.045c-13.472 0-23.312-12.727-19.902-25.772l2.709-10.365c3.288-12.585 14.692-21.403 27.716-21.403 13.025 0 24.422 8.801 27.715 21.403.324 1.242 2.464 9.431 2.709 10.366 3.404 13.026-6.415 25.771-19.902 25.771zm56.813-18.561c-6.921.269-14.363.269-21.284 0 .2-3.797-.227-7.611-1.113-11.003l-2.709-10.366c-5.053-19.332-22.521-32.611-42.229-32.611-.009 0-.019.001-.028.001-13.543.008-27.064 6.356-35.523 18.274-4.82-9.025-7.181-19.816-7.181-32.669 0-8.263 1.009-16.433 3.005-24.361h27.851c7.983 0 15.585-2.472 21.573-6.348 8.435 20.452 24.988 44.009 46.999 44.009 22.067 0 38.616-23.674 46.999-44.009 6.195 4.007 13.863 6.348 21.571 6.348h.001 27.847c1.996 7.927 3.005 16.098 3.005 24.361 0 12.854-2.361 23.645-7.181 32.669-8.479-11.945-22.015-18.265-35.524-18.274-.009 0-.018-.001-.027-.001-19.845 0-37.211 13.41-42.229 32.611-.285 1.089.845-3.233-2.709 10.365-.001.003-.001.007-.002.01-.888 3.403-1.325 7.336-1.112 10.994zm-10.641-212.856c13.418 0 23.237 13.033 19.235 26.041-6.293-2.334-12.895-3.449-19.235-3.449-6.271 0-12.903 1.1-19.235 3.449-3.966-12.894 5.708-26.041 19.235-26.041zm0 142.781c-16.228 0-29.953-25.073-35.338-40.583 4.153-6.329 6.538-13.959 6.538-21.847 0-7.572-2.199-15.19-6.478-21.742 6.944-12.826 20.419-21.014 35.279-21.014 14.659 0 28.214 8.004 35.279 21.014-4.082 6.261-6.467 13.788-6.476 21.699 0 .015-.001.029-.001.043s.001.028.001.042c.008 7.381 2.135 15.109 6.536 21.805-5.362 15.283-19.257 40.583-35.34 40.583zm67.215 88.636h-21.044c-13.455 0-23.319-12.714-19.902-25.771l2.709-10.366c3.198-12.236 14.352-21.403 27.715-21.403 9.488 0 18.416 4.729 23.752 12.639 4.267 6.382 4.418 11.756 6.673 19.13 3.407 13.035-6.422 25.771-19.903 25.771zm41.331-175.837c13.545 0 24.77 11.008 24.77 24.77 0 13.658-11.112 24.77-24.77 24.77-14.128 0-24.791 0-39.973 0-.002 0-.004 0-.006 0-13.694-.008-24.748-11.165-24.763-24.743 0-.009-.001-.018-.001-.027s.001-.017.001-.025c.015-13.827 11.326-24.744 24.769-24.744h39.973zm-46.298-19.533c0 1.764-.229 3.477-.673 5.161-5.498 1.013-10.644 3.042-15.424 6.317-.002.002-.005.003-.008.005-3.658-5.605-8.263-10.428-13.549-14.301 2.043-5.06 2.851-10.69 2.41-16.005 2.146-.812 4.702-1.3 7.12-1.3 11.097-.001 20.124 9.027 20.124 20.123zm-104.371-20.124c2.469 0 5.008.501 7.12 1.3-.459 5.545.454 11.16 2.41 16.005-5.286 3.873-9.891 8.696-13.549 14.301-4.498-3.083-9.678-5.283-15.431-6.322-.444-1.677-.673-3.403-.673-5.161 0-11.095 9.027-20.123 20.123-20.123zm-26.448 39.657c13.61 0 24.77 11.097 24.77 24.77 0 13.61-11.081 24.77-24.77 24.77-15.027 0-25.61 0-39.974 0-13.658 0-24.769-11.112-24.769-24.77 0-13.644 11.106-24.77 24.769-24.77zm-92.338-213.099c-7.904-12.295-11.574-26.438-10.578-40.395 9.995-.153 20.07 1.253 30.257 4.721 3.897 1.33 8.175-.736 9.519-4.68 1.336-3.921-.759-8.182-4.68-9.519-10.259-3.495-20.955-5.34-32.148-5.533 4.015-12.124 11.754-22.254 22.372-29.079 26.415-16.975 63.751-8.227 82.971 21.683 8.548 13.296 17.29 36.468 22.527 59.311-11.381 3.324-22.254 8.023-32.482 14.037-7.102-17.999-19.388-33.95-34.708-45.373-3.321-2.477-8.019-1.794-10.496 1.528-2.461 3.3-1.813 8.004 1.529 10.496 14 10.442 24.939 25.165 30.823 41.852-10.664 7.893-20.133 17.15-28.261 27.626-19.433-14.548-37.68-32.721-46.645-46.675zm201.577-3.49c5.237-22.843 13.98-46.014 22.529-59.312 19.237-29.939 56.584-38.639 82.969-21.682 10.619 6.826 18.358 16.956 22.373 29.08-41.901.591-79.947 26.731-95.394 65.949-10.455-6.148-21.514-10.827-32.477-14.035zm120.242 3.492c-8.965 13.952-27.211 32.125-46.646 46.674-8.128-10.476-17.599-19.735-28.263-27.627 12.709-36.101 47.348-60.085 85.488-59.43.993 13.951-2.678 28.09-10.579 40.383z"/></g></g></svg>